<svg width="315" height="319" viewBox="0 0 315 319" fill="none" xmlns="http://www.w3.org/2000/svg">
<path d="M41.5 177C81 119.5 184.239 21.2643 253.5 0H316C319 98.1667 316 310.302 316 310.302C307 326.104 253.5 315.5 246 310.302C238.5 305.104 181 293.5 135 310.302C98.2 323.744 57.3333 315.903 41.5 310.302C-15.4408 292.499 -9.56235 251.331 41.5 177Z" fill="#00B0FF" fill-opacity="0.15"/>
<g clip-path="url(#clip0)">
<path opacity="0.1" d="M259.787 164.98C259.741 165.318 259.695 165.655 259.644 165.993C257.999 177.492 255.313 188.578 251.319 198.756C251.188 199.094 251.054 199.431 250.919 199.769C248.355 206.187 245.208 212.218 241.538 217.744C239.548 220.726 237.379 223.557 234.799 225.601C231.184 228.465 226.957 229.629 222.802 230.582C218.486 231.573 214.113 232.39 209.75 233.295C208.204 233.609 206.667 233.937 205.14 234.281C200.925 235.228 196.742 236.322 192.658 237.772C187.608 239.581 182.709 241.912 178.099 245.213C177.73 245.474 177.365 245.743 177.004 246.018C176.643 246.289 176.276 246.567 175.925 246.85C175.573 247.133 175.218 247.414 174.869 247.7L174.33 248.152C174.153 248.297 173.978 248.454 173.804 248.599C173.284 249.039 172.772 249.503 172.26 249.949L172.241 249.967C171.904 250.269 171.569 250.57 171.234 250.872C169.344 252.611 167.495 254.432 165.653 256.26L164.491 257.414C163.891 258.005 163.29 258.595 162.69 259.184C162.338 259.531 161.982 259.874 161.627 260.218C161.37 260.468 161.115 260.719 160.853 260.966C159.541 262.223 158.211 263.453 156.855 264.629C156.532 264.909 156.204 265.19 155.884 265.464C153.169 267.772 150.281 269.748 147.26 271.367L147.221 271.388C145.733 272.176 144.202 272.832 142.64 273.351C141.745 273.653 140.849 273.891 139.942 274.078C137.524 274.597 135.056 274.65 132.626 274.234C127.848 273.393 123.371 270.617 118.605 269.688C108.773 267.792 99.2247 273.909 89.9724 278.712C87.7076 279.889 85.4178 280.995 83.1029 282.028C81.5693 282.715 80.0285 283.37 78.4804 283.991C69.0488 287.781 59.3303 290.364 49.4762 291.7C45.453 292.245 41.2576 292.505 37.1616 292.113C35.6149 291.972 34.0757 291.723 32.5512 291.368C27.3658 290.162 22.5249 287.603 18.6254 282.926C15.386 279.1 13.1003 274.099 11.358 268.88C10.6576 266.784 10.0404 264.639 9.50658 262.446C8.66749 259.009 8.03725 255.499 7.62117 251.945C7.52654 251.143 7.44161 250.338 7.37852 249.533C7.25234 248.152 7.15852 246.766 7.09704 245.373C6.7573 237.97 7.33924 230.546 8.8223 223.364C10.4748 215.408 13.2313 207.789 14.4445 199.757C14.4955 199.419 14.5416 199.082 14.5877 198.744C14.7495 197.538 14.8724 196.31 14.9565 195.06C15.568 185.237 13.2022 175.623 11.3337 165.993C11.2682 165.655 11.2027 165.318 11.1396 164.98C10.9374 163.913 10.7457 162.845 10.5645 161.775C8.83443 151.591 8.36126 140.692 9.89725 130.529C9.94578 130.191 10.0016 129.85 10.0574 129.516C11.0935 123.221 12.9231 117.233 15.7257 111.9C18.6012 106.425 22.3768 101.869 26.4024 97.8652C28.3679 95.9156 30.4005 94.0915 32.5003 92.3931C34.0096 91.1751 35.5464 90.0224 37.1107 88.935C49.7504 80.1918 64.1712 75.9197 78.4294 76.8754C79.1849 76.9236 79.9387 76.988 80.6909 77.0684C81.4804 77.1528 82.2674 77.2533 83.0519 77.3698C92.2315 78.6874 101.163 81.9525 110.042 85.5252C113.017 86.7311 115.985 87.9371 118.952 89.1431C120.272 89.6777 121.592 90.2053 122.91 90.7259C129.377 93.2614 135.95 95.5498 142.584 97.2743C144.123 97.6763 145.659 98.0431 147.195 98.3747C152.532 99.5626 157.933 100.254 163.353 100.443C165.456 100.507 167.559 100.48 169.662 100.362C170.725 100.301 171.788 100.213 172.853 100.096C183.847 98.9265 194.449 95.0041 205.094 91.3198C206.632 90.7862 208.173 90.2556 209.704 89.743C211.728 89.0677 213.754 88.4135 215.787 87.8105C228.449 84.0328 239.732 86.2035 251.503 93.9941C254.172 95.7638 256.842 97.8984 258.492 101.203C260.142 104.507 260.542 108.598 260.848 112.536C261.28 118.137 261.576 123.818 261.67 129.522C261.67 129.859 261.67 130.197 261.687 130.535C261.901 142.085 261.336 153.722 259.787 164.98Z" fill="#00B0FF"/>
<path opacity="0.1" d="M175.808 198.756H174.981V199.205V199.769H175.917L175.808 198.756ZM166.43 198.756C166.428 198.764 166.428 198.772 166.43 198.78L166.357 199.618V199.694V199.769H173.539V199.709L174.051 198.756H166.43ZM147.224 198.756V165.993H155.474C155.387 165.903 155.297 165.812 155.205 165.728L155.083 165.613C155.032 165.562 154.981 165.514 154.928 165.469C154.875 165.423 154.748 165.309 154.654 165.23C154.559 165.152 154.501 165.101 154.411 165.037L154.355 164.992H154.343H147.224V163.198L147.032 163.313L146.828 163.455H146.814L146.77 163.488L146.644 163.59C146.6 163.623 146.556 163.657 146.515 163.693C146.389 163.798 146.273 163.913 146.139 164.03L146.018 164.151C145.935 164.229 145.858 164.311 145.775 164.392C145.452 164.721 145.134 165.065 144.804 165.381C144.722 165.463 144.639 165.541 144.562 165.616C144.385 165.777 144.202 165.926 144.013 166.062C143.935 166.123 143.854 166.178 143.771 166.228L143.635 166.307L143.511 166.373C143.22 166.526 142.918 166.645 142.608 166.729V198.756H130.233C130.233 198.792 130.25 198.825 130.258 198.862C130.325 199.163 130.393 199.465 130.459 199.766H142.611V234.887H142.8L143.016 234.905L143.409 234.941L144.045 235.019L144.331 235.062L144.647 235.11H144.693C144.875 235.14 145.059 235.176 145.246 235.212L145.365 235.237L145.632 235.291L146.015 235.375L146.935 235.315L147.061 235.348C147.112 235.348 147.163 235.372 147.216 235.387V199.769H166.34V199.694V199.618L166.413 198.78C166.411 198.772 166.411 198.764 166.413 198.756H147.224ZM175.808 198.756H174.981V199.205V199.769H175.917L175.808 198.756ZM165.913 198.756L165.83 199.769H173.821L174.364 198.756H165.913ZM147.229 198.756V165.993H155.479C155.391 165.903 155.302 165.812 155.209 165.728L155.088 165.613C155.037 165.562 154.986 165.514 154.933 165.469C154.879 165.423 154.753 165.309 154.659 165.23C154.564 165.152 154.506 165.101 154.416 165.037L154.36 164.992H154.343H147.224V163.198L147.032 163.313L146.828 163.455H146.814L146.77 163.488L146.644 163.59C146.6 163.623 146.556 163.657 146.515 163.693C146.389 163.798 146.273 163.913 146.139 164.03L146.018 164.151C145.935 164.229 145.858 164.311 145.775 164.392C145.452 164.721 145.134 165.065 144.804 165.381C144.722 165.463 144.639 165.541 144.562 165.616C144.385 165.777 144.202 165.926 144.013 166.062C143.935 166.123 143.854 166.178 143.771 166.228L143.635 166.307L143.511 166.373C143.22 166.526 142.918 166.645 142.608 166.729V198.756H130.233C130.233 198.792 130.25 198.825 130.258 198.862C130.325 199.163 130.396 199.465 130.461 199.766H142.611V234.884L142.8 234.899L143.016 234.917L143.409 234.953L144.045 235.032L144.331 235.074L144.647 235.122H144.693C144.875 235.152 145.059 235.188 145.246 235.225L145.365 235.249L145.632 235.303L146.015 235.387L146.935 235.327L147.061 235.36C147.112 235.36 147.163 235.384 147.216 235.399V199.769H165.83L165.918 198.756H147.229ZM209.75 130.529H261.734C261.734 130.191 261.734 129.853 261.717 129.516H209.75V89.737C208.207 90.2495 206.666 90.7802 205.14 91.3138V129.516H148.602L148.459 129.323L148.675 129.021L169.703 100.346C167.6 100.467 165.497 100.494 163.394 100.428L147.224 122.467V98.3687C145.68 98.0371 144.144 97.6702 142.613 97.2683V121.357L118.972 89.137C116.004 87.9311 113.036 86.704 110.062 85.5191L142.196 129.323L142.053 129.516H83.0714V77.3578C82.2852 77.2472 81.4982 77.1467 80.7104 77.0563C79.9582 76.9739 79.2043 76.9096 78.4489 76.8633V129.516H37.1301V88.935C35.5626 90.0204 34.0258 91.1731 32.5197 92.3931V129.516H10.0477C9.99191 129.85 9.9361 130.191 9.88757 130.529H32.5003V164.98H11.1397C11.2027 165.318 11.2683 165.655 11.3338 165.993H32.51V198.756H14.5805C14.5344 199.094 14.4883 199.431 14.4373 199.769H32.51V291.377C34.0344 291.732 35.5736 291.981 37.1204 292.122V199.769H78.4489V284C79.9986 283.375 81.5395 282.72 83.0714 282.037V199.769H142.604V273.363C144.166 272.844 145.697 272.188 147.185 271.4L147.224 271.379V199.769H205.125V234.281C206.661 233.937 208.197 233.609 209.736 233.295V199.769H250.906C251.042 199.431 251.176 199.094 251.307 198.756H209.75V165.993H259.647C259.698 165.655 259.744 165.318 259.79 164.98H209.75V130.529ZM37.1325 130.529H78.4489V164.98H37.1301L37.1325 130.529ZM37.1325 198.756V165.993H78.4489V198.756H37.1325ZM83.0738 130.529H142.604V164.98H83.0714L83.0738 130.529ZM83.0738 198.756V165.993H142.604V198.756H83.0738ZM205.128 198.756H147.224V165.993H205.125L205.128 198.756ZM205.128 164.989H147.224V131.451L148.037 130.529H205.125L205.128 164.989ZM166.432 198.756C166.431 198.764 166.431 198.772 166.432 198.78L166.359 199.618V199.694V199.769H173.542V199.709L174.054 198.756H166.432ZM175.811 198.756H174.983V199.205V199.769H175.92L175.811 198.756ZM147.226 198.756V165.993H155.476C155.389 165.903 155.299 165.812 155.207 165.728L155.086 165.613C155.035 165.562 154.984 165.514 154.93 165.469C154.877 165.423 154.751 165.309 154.656 165.23C154.562 165.152 154.503 165.101 154.413 165.037L154.358 164.992H154.346H147.224V163.198L147.032 163.313L146.828 163.455H146.814L146.77 163.488L146.644 163.59C146.6 163.623 146.556 163.657 146.515 163.693C146.389 163.798 146.273 163.913 146.139 164.03L146.018 164.151C145.935 164.229 145.858 164.311 145.775 164.392C145.452 164.721 145.134 165.065 144.804 165.381C144.722 165.463 144.639 165.541 144.562 165.616C144.385 165.777 144.202 165.926 144.013 166.062C143.935 166.123 143.854 166.178 143.771 166.228L143.635 166.307L143.511 166.373C143.22 166.526 142.918 166.645 142.608 166.729V198.756H130.233C130.233 198.792 130.25 198.825 130.258 198.862C130.325 199.163 130.393 199.465 130.459 199.766H142.611V234.887H142.8L143.016 234.905L143.409 234.941L144.045 235.019L144.331 235.062L144.647 235.11H144.693C144.875 235.14 145.059 235.176 145.246 235.212L145.365 235.237L145.632 235.291L146.015 235.375L146.935 235.315L147.061 235.348C147.112 235.348 147.163 235.372 147.216 235.387V199.769H166.34V199.694V199.618L166.413 198.78C166.411 198.772 166.411 198.764 166.413 198.756H147.226Z" fill="#00B0FF"/>
<path opacity="0.1" d="M56.996 106.807H57.3649C57.2386 106.717 57.1325 106.589 57.0559 106.434C56.9792 106.28 56.9345 106.105 56.9257 105.924C56.9257 105.225 57.6148 104.655 58.4568 104.655H69.1699C70.0119 104.655 70.701 105.225 70.701 105.924C70.701 106.621 70.0119 107.193 69.1699 107.193H68.8132C68.9388 107.285 69.0444 107.413 69.1205 107.567C69.1967 107.721 69.2412 107.896 69.25 108.077C69.25 108.68 68.7501 109.174 68.0804 109.31H71.1645C72.0041 109.31 72.6932 109.88 72.6932 110.579C72.6932 111.279 72.0041 111.845 71.1645 111.845H60.4393C59.5997 111.845 58.9105 111.276 58.9105 110.579C58.9105 109.976 59.4104 109.482 60.0801 109.346H56.996C56.1565 109.346 55.4673 108.776 55.4673 108.077C55.4673 107.377 56.1516 106.807 56.996 106.807Z" fill="#00B0FF"/>
<path opacity="0.1" d="M173.11 118.888H173.469C173.343 118.797 173.236 118.668 173.16 118.514C173.083 118.359 173.038 118.183 173.03 118.002C173.03 117.305 173.719 116.736 174.561 116.736H185.274C186.116 116.736 186.805 117.305 186.805 118.002C186.805 118.701 186.116 119.271 185.274 119.271H184.917C185.043 119.363 185.149 119.492 185.225 119.646C185.301 119.801 185.345 119.977 185.354 120.157C185.354 120.76 184.854 121.252 184.185 121.388H187.269C188.108 121.388 188.797 121.96 188.797 122.657C188.797 123.353 188.108 123.926 187.269 123.926H176.558C175.718 123.926 175.029 123.356 175.029 122.657C175.029 122.054 175.529 121.559 176.199 121.427H173.11C172.27 121.427 171.581 120.854 171.581 120.157C171.581 119.461 172.275 118.888 173.11 118.888Z" fill="#00B0FF"/>
<path opacity="0.1" d="M40.5612 170.585H40.9203C40.7945 170.493 40.6888 170.364 40.6127 170.21C40.5365 170.055 40.4921 169.879 40.4835 169.698C40.4835 169.002 41.1702 168.429 42.0122 168.429H52.7253C53.5673 168.429 54.2565 169.002 54.2565 169.698C54.2565 170.398 53.5673 170.968 52.7253 170.968H52.3686C52.4944 171.06 52.6001 171.188 52.6763 171.343C52.7524 171.498 52.7968 171.673 52.8054 171.854C52.8054 172.457 52.3055 172.949 51.6358 173.084H54.7199C55.5619 173.084 56.2486 173.654 56.2486 174.353C56.2486 175.053 55.5619 175.623 54.7199 175.623H44.0044C43.1648 175.623 42.4757 175.05 42.4757 174.353C42.4757 173.75 42.978 173.256 43.6453 173.12H40.5612C39.7216 173.12 39.0325 172.551 39.0325 171.854C39.0325 171.158 39.7216 170.585 40.5612 170.585Z" fill="#00B0FF"/>
<path d="M164.462 257.426C163.862 258.017 163.261 258.607 162.661 259.196C162.309 259.543 161.953 259.886 161.598 260.23C161.341 260.48 161.086 260.731 160.824 260.978C159.512 262.235 158.182 263.465 156.825 264.641C156.503 264.921 156.175 265.202 155.855 265.476C153.14 267.784 150.252 269.761 147.231 271.379L147.192 271.4V257.426H164.462Z" fill="#65617D"/>
<path d="M191.464 202.507L191.736 192.09C191.573 191.933 191.408 191.789 191.25 191.644C191.318 188.538 191.175 185.431 190.823 182.355C189.727 171.939 182.605 171.712 180.596 173.862C180.329 174.148 180.039 174.396 179.729 174.604C179.911 173.117 180.137 171.628 180.3 170.157C181.178 162.221 179.814 153.294 174.859 148.166C172.785 146.022 170.249 144.705 167.97 142.911C163.889 139.712 160.664 134.988 156.537 131.873C152.409 128.759 146.612 127.592 143.011 131.596C141.616 133.146 140.716 135.295 139.284 136.791C136.615 139.576 132.453 139.76 130.124 142.872C130.008 143.029 129.896 143.188 129.789 143.357C127.848 146.45 128.379 150.837 128.998 154.675C129.743 159.294 129.435 162.996 132.623 164.323C132.635 164.507 132.645 164.691 132.662 164.872C132.922 167.705 133.676 170.434 134.873 172.867C136.07 175.3 137.681 177.379 139.592 178.957L139.075 179.186C137.697 179.789 136.457 180.374 135.664 180.775C132.752 182.25 126.623 184.17 126.623 184.17C126.623 184.17 126.477 186.341 126.504 189.543C124.461 192.301 121.051 197.149 120.049 200.022C118.593 204.213 110.367 216.216 108.176 218.027C105.985 219.839 103.609 221.989 103.609 221.989C103.609 221.989 100.14 224.368 98.4968 224.594C97.3587 224.751 93.8379 223.913 93.8379 223.913C93.8379 223.913 79.7762 202.507 80.6885 218.932C81.6009 235.357 92.8333 235.915 92.8333 235.915L104.158 235.689C104.158 235.689 110.278 236.708 113.017 233.88C115.356 231.468 127.479 218.235 131.374 212.233C131.463 212.356 131.553 212.477 131.648 212.595C131.648 212.595 133.198 210.104 133.383 212.595C133.567 215.085 132.376 216.212 133.016 217.117C133.657 218.021 135.574 221.193 135.664 222.438C135.754 223.683 133.109 228.77 137.581 232.629C137.651 232.689 137.726 232.746 137.809 232.804C138.607 235.062 141.145 237.272 141.145 237.272L154.843 237.046L180.688 239.536C180.688 239.536 181.457 238.695 182.498 237.32C183.888 238.906 185.818 240.265 187.992 239.43C187.992 239.43 191.098 234.79 191.19 231.733C191.19 231.733 189.181 225.278 188.278 223.355C187.375 221.431 188.919 217.241 188.919 217.241C188.919 217.241 190.013 213.164 190.654 213.164C191.294 213.164 190.836 210.451 190.836 210.451C190.593 210.007 190.442 209.497 190.394 208.965C190.346 208.432 190.404 207.893 190.561 207.394C191.098 205.678 191.464 202.507 191.464 202.507Z" fill="url(#paint0_linear)"/>
<path d="M175.971 200.161L175 201.572L171.079 207.246L165.956 207.632L157.757 208.259C157.757 208.259 146.702 191.707 148.779 188.104C149.534 186.805 149.658 185.09 149.507 183.471C149.488 183.247 149.461 183.024 149.429 182.804C149.181 181.091 148.747 179.428 148.139 177.86L148.41 177.706L148.585 177.607L158.252 172.125L160.645 170.769C160.764 171.588 160.985 172.379 161.3 173.114C161.346 173.229 161.397 173.343 161.45 173.452C164.748 180.236 175.323 175.945 175.323 175.945L175.971 200.161Z" fill="#EE8E9E"/>
<path d="M190.265 191.692C190.192 195.799 189.654 197.571 189.654 197.571L175.971 200.161L175.459 195.747L173.433 178.318L175.335 175.954C176.095 176.158 176.882 176.142 177.637 175.908C178.391 175.674 179.092 175.228 179.686 174.604C181.678 172.463 188.746 172.689 189.833 183.045C190.153 185.91 190.297 188.801 190.265 191.692Z" fill="#EE8E9E"/>
<path d="M187.026 239.789C187.026 239.789 190.105 235.173 190.197 232.134L187.116 225.715L184.398 222.098L179.322 234.272C179.322 234.272 182.675 241.477 187.026 239.789Z" fill="#DFE5EE"/>
<path opacity="0.1" d="M187.026 239.789C187.026 239.789 190.105 235.173 190.197 232.134L187.116 225.715L184.398 222.098L179.322 234.272C179.322 234.272 182.675 241.477 187.026 239.789Z" fill="black"/>
<path d="M161.598 260.23C161.341 260.48 161.086 260.731 160.824 260.978C159.512 262.235 158.182 263.465 156.825 264.641C156.503 264.921 156.175 265.202 155.855 265.476H142.604H83.0714H78.4489L55.5474 264.457L37.1301 264.264L32.5197 263.963L9.5163 262.455C8.67358 259.016 8.04009 255.503 7.62119 251.945C7.52656 251.143 7.44163 250.338 7.37854 249.533L32.51 251.264L37.1204 251.586L78.4392 254.451L83.0617 254.77L142.594 258.901L147.175 259.22H147.214L161.598 260.23Z" fill="#D48A9B"/>
<path d="M192.643 237.772C187.594 239.581 182.695 241.912 178.084 245.213C177.718 245.475 177.356 245.744 176.99 246.018C176.623 246.292 176.262 246.567 175.91 246.85C175.558 247.133 175.204 247.414 174.854 247.7L174.316 248.152L173.789 248.599C173.27 249.042 172.758 249.503 172.246 249.949L172.227 249.967C171.889 250.269 171.554 250.57 171.22 250.872C169.329 252.612 167.48 254.433 165.639 256.26C165.25 256.645 164.861 257.03 164.471 257.414L162.676 259.184C162.324 259.531 161.967 259.874 161.613 260.218C161.356 260.468 161.101 260.719 160.839 260.966L147.25 260.161H147.212L142.63 259.896L83.0714 256.389L78.4489 256.115L37.1301 253.676L32.5197 253.401L7.62117 251.945C7.52654 251.143 7.44161 250.338 7.37852 249.533C7.25234 248.152 7.15852 246.766 7.09705 245.373L32.5173 234.218L37.1277 232.188L41.3158 230.349L48.9472 230.844L66.5856 231.968L78.4561 232.743L83.0787 233.045L86.0317 233.238L86.7378 233.286L111.59 234.899L111.852 234.92L122.942 235.638H123.068H123.14L124.249 235.707L128.03 235.954L132.757 236.256L134.315 236.358L134.608 236.379L136.811 236.521L137.44 236.56L139.544 236.699L140.381 236.756H140.408H140.582L142.55 236.886L145.598 237.085H145.612L146.559 237.145H146.661L147.226 237.184L148.614 237.275L149.827 237.353H149.839L151.201 237.44H151.223L152.254 237.51L153.045 237.561L155.852 237.745L156.357 237.778H156.532L156.774 237.796L157.597 237.85L157.966 237.875L160.829 238.059H161.091L165.318 238.013H165.347L181.418 237.85H181.726H182.052H183.008L188.181 237.799H188.953L192.643 237.772Z" fill="#EFC6CD"/>
<path d="M84.1803 238.185L85.6751 248.065L126.314 247.305C126.314 247.305 129.372 248.403 129.304 245.364C129.304 245.364 135.489 238.101 166.818 246.545L154.79 234.808L121.91 237.003L83.7848 235.737L84.1803 238.185Z" fill="#00B0FF"/>
<path d="M84.9277 235.821L86.3545 246.545C86.3545 246.545 121.296 245.279 126.79 246.461L122.638 236.666C122.638 236.666 101.511 234.218 84.9277 235.821Z" fill="white"/>
<path opacity="0.1" d="M84.9277 235.821L86.3545 246.545C86.3545 246.545 121.296 245.279 126.79 246.461L122.638 236.666C122.638 236.666 101.511 234.218 84.9277 235.821Z" fill="black"/>
<path d="M85.4494 235.782L86.8568 245.756C86.8568 245.756 121.355 244.58 126.79 245.677L122.696 236.569C122.696 236.569 101.824 234.29 85.4494 235.782Z" fill="white"/>
<path opacity="0.1" d="M86.0827 236.09L87.4537 245.418C87.4537 245.418 121.194 244.318 126.521 245.346L122.517 236.822C122.517 236.822 102.1 234.682 86.0827 236.09Z" fill="black"/>
<path d="M86.3545 235.749L87.7327 245.095C87.7327 245.095 121.473 243.995 126.8 245.023L122.786 236.491C122.786 236.491 102.372 234.353 86.3545 235.749Z" fill="white"/>
<path d="M62.4824 210.385C62.4824 210.385 64.2489 213.252 61.6695 217.584C59.0901 221.917 56.9596 225.571 57.821 228.272C57.821 228.272 61.7034 220.228 64.8822 220.132C68.0609 220.035 65.9693 215.221 62.4824 210.385Z" fill="#00B0FF"/>
<path opacity="0.1" d="M62.4824 210.385C62.6376 210.663 62.7594 210.967 62.8439 211.289C65.9353 215.811 67.5829 220.032 64.6104 220.123C61.8418 220.219 58.5223 226.37 57.7264 227.925C57.7539 228.042 57.7854 228.16 57.821 228.278C57.821 228.278 61.7034 220.234 64.8822 220.138C68.0609 220.041 65.9693 215.221 62.4824 210.385Z" fill="black"/>
<path d="M65.7654 214.042C65.7654 215.049 65.6732 215.869 65.5616 215.869C65.45 215.869 65.3578 215.049 65.3578 214.042C65.3578 213.035 65.4718 213.505 65.5835 213.505C65.6951 213.505 65.7654 213.032 65.7654 214.042Z" fill="#FFD037"/>
<path d="M66.8914 215.245C66.178 215.73 65.5568 216.023 65.5034 215.899C65.45 215.775 65.9887 215.296 66.6972 214.802C67.4058 214.307 67.1292 214.669 67.1825 214.802C67.2359 214.934 67.6048 214.762 66.8914 215.245Z" fill="#FFD037"/>
<path d="M53.1572 210.385C53.1572 210.385 51.3907 213.252 53.9725 217.584C56.5544 221.917 58.68 225.571 57.821 228.272C57.821 228.272 53.9264 220.228 50.7574 220.132C47.5884 220.035 49.6703 215.221 53.1572 210.385Z" fill="#00B0FF"/>
<path opacity="0.1" d="M53.1572 210.385C53.0033 210.664 52.8816 210.968 52.7957 211.289C49.7043 215.811 48.0567 220.032 51.0292 220.123C53.7978 220.219 57.1197 226.37 57.9156 227.925C57.8898 228.042 57.8582 228.16 57.821 228.278C57.821 228.278 53.9264 220.234 50.7574 220.138C47.5884 220.041 49.6703 215.221 53.1572 210.385Z" fill="black"/>
<path d="M49.8742 214.042C49.8742 215.049 49.9664 215.869 50.078 215.869C50.1896 215.869 50.2818 215.049 50.2818 214.042C50.2818 213.035 50.1678 213.505 50.0562 213.505C49.9445 213.505 49.8742 213.032 49.8742 214.042Z" fill="#FFD037"/>
<path d="M48.7483 215.245C49.4617 215.73 50.0853 216.023 50.1387 215.899C50.1921 215.775 49.6534 215.296 48.9448 214.802C48.2363 214.307 48.5129 214.669 48.4595 214.802C48.4061 214.934 48.0349 214.762 48.7483 215.245Z" fill="#FFD037"/>
<path d="M67.3136 224.404L67.2262 225.308L67.1025 226.572L67.0515 227.099L66.9278 228.366L66.8744 228.893L66.7482 230.159L65.336 244.547C65.2098 245.831 63.5209 246.832 61.4827 246.832H54.1497C52.1114 246.832 50.425 245.831 50.2988 244.547L48.8842 230.159L48.7604 228.893L48.7095 228.366L48.5833 227.099L48.5323 226.572L48.4086 225.308L48.3188 224.404C48.2484 223.677 49.1608 223.065 50.3158 223.065H65.3263C66.4789 223.065 67.3937 223.677 67.3136 224.404Z" fill="#65617D"/>
<path d="M67.2335 225.299L67.1097 226.566H48.5323L48.4085 225.299H67.2335Z" fill="#9D9CB5"/>
<path d="M67.0588 227.093L66.935 228.36H48.7094L48.5833 227.093H67.0588Z" fill="#9D9CB5"/>
<path d="M66.8817 228.887L66.7579 230.15H48.8842L48.7604 228.887H66.8817Z" fill="#9D9CB5"/>
<path d="M89.7079 223.24C89.7079 223.24 84.9956 217.611 85.1776 224.929C85.3596 232.246 89.7079 223.24 89.7079 223.24Z" fill="#EE8E9E"/>
<path d="M132.024 210.406C131.92 210.973 131.413 211.913 130.622 213.092C126.535 219.206 114.91 231.914 112.631 234.272C109.914 237.088 103.842 236.081 103.842 236.081L92.6076 236.307C92.6076 236.307 81.4626 235.743 80.5551 219.423C79.6476 203.104 93.6025 224.377 93.6025 224.377C93.6025 224.377 97.0967 225.209 98.225 225.052C99.8557 224.829 103.299 222.465 103.299 222.465C103.299 222.465 105.655 220.325 107.829 218.525C110.003 216.725 118.159 204.789 119.61 200.622C120.53 197.978 123.492 193.655 125.538 190.851C126.712 189.238 127.584 188.138 127.584 188.138C127.584 188.138 132.657 206.914 132.024 210.406Z" fill="#EE8E9E"/>
<path opacity="0.1" d="M132.024 210.406C131.92 210.973 131.413 211.913 130.622 213.092C126.496 207.873 125.635 197.46 125.538 190.839C126.712 189.226 127.583 188.126 127.583 188.126C127.583 188.126 132.657 206.914 132.024 210.406Z" fill="black"/>
<path opacity="0.1" d="M174.998 201.572L171.079 207.246L165.956 207.632L157.757 208.259C157.757 208.259 146.702 191.707 148.779 188.104C149.534 186.805 149.658 185.09 149.507 183.471C149.488 183.247 149.461 183.024 149.429 182.804C149.181 181.091 148.747 179.428 148.139 177.86L148.41 177.706L148.585 177.607C149.016 179.1 149.314 180.648 149.473 182.222C149.5 182.436 149.524 182.66 149.548 182.889C149.633 183.703 149.711 184.607 149.791 185.602C150.422 194.713 155.035 198.141 157.117 199.232C157.786 199.583 158.44 199.977 159.077 200.411C161.08 201.784 163.39 202.303 165.653 201.889C170.793 201.05 174.983 196.411 174.983 196.411L175.005 200.978L174.998 201.572Z" fill="black"/>
<path d="M175.155 236.976C175.155 236.976 141.449 236.862 137.006 233.036C132.563 229.21 135.195 224.142 135.103 222.903C135.011 221.663 133.111 218.513 132.478 217.608C131.844 216.704 133.021 215.582 132.839 213.107C132.657 210.632 131.119 213.107 131.119 213.107C124.774 205.112 126.132 184.848 126.132 184.848C126.132 184.848 132.199 182.937 135.111 181.469C135.899 181.071 137.127 180.504 138.508 179.892L139.02 179.663C142.579 178.08 146.811 176.292 146.811 176.292C146.811 176.292 147.624 175.578 148.442 177.715C148.816 178.698 149.192 180.281 149.493 182.81C149.519 183.024 149.543 183.247 149.568 183.477C149.653 184.291 149.73 185.195 149.81 186.19C150.441 195.301 155.054 198.729 157.136 199.82C157.805 200.171 158.46 200.565 159.097 200.999C161.1 202.372 163.41 202.891 165.673 202.477C170.812 201.638 175.003 196.998 175.003 196.998L175.024 201.566L175.087 215.29L175.155 236.976Z" fill="#DFE5EE"/>
<path d="M173.704 219.188L173.161 223.466C173.161 223.466 159.749 227.63 154.496 228.869C149.243 230.108 137.913 228.531 137.098 231.233C136.283 233.934 140.541 237.652 140.541 237.652L154.13 237.425L179.773 239.904C179.773 239.904 189.559 229.207 186.388 221.775C183.216 214.343 173.704 219.188 173.704 219.188Z" fill="#EE8E9E"/>
<path opacity="0.1" d="M146.069 185.412C146.069 185.412 139.905 191.716 141.085 194.758C142.264 197.8 146.069 185.412 146.069 185.412Z" fill="black"/>
<path opacity="0.1" d="M138.457 196.781C138.457 196.781 132.204 210.18 132.568 211.193C132.932 212.206 134.652 215.808 134.56 213.107C134.468 210.406 138.457 196.781 138.457 196.781Z" fill="black"/>
<path opacity="0.1" d="M140.995 199.148C140.995 199.148 139.539 207.478 138.095 210.97C136.651 214.461 140.995 199.148 140.995 199.148Z" fill="black"/>
<path opacity="0.1" d="M161.463 173.461C160.264 176.191 158.557 178.525 156.485 180.267C154.412 182.01 152.034 183.11 149.548 183.477H149.519C145.61 184.047 141.671 182.766 138.488 179.889C142.128 178.255 146.792 176.289 146.792 176.289C146.792 176.289 147.605 175.575 148.422 177.712L160.657 170.778C160.794 171.725 161.067 172.634 161.463 173.461Z" fill="black"/>
<path d="M163.375 163.458C163.379 166.848 162.668 170.181 161.312 173.123C160.664 174.527 159.88 175.825 158.975 176.988C156.453 180.252 153.092 182.316 149.473 182.825H149.442C148.863 182.908 148.282 182.949 147.699 182.949C143.848 182.949 140.131 181.187 137.258 178C134.385 174.812 132.558 170.422 132.124 165.668C132.056 164.938 132.023 164.204 132.024 163.47C132.024 158.304 133.676 153.35 136.615 149.698C139.555 146.045 143.542 143.993 147.699 143.993C151.857 143.993 155.844 146.045 158.783 149.698C161.723 153.35 163.375 158.304 163.375 163.47V163.458Z" fill="#EE8E9E"/>
<path opacity="0.1" d="M173.525 200.312L174.981 197.598C174.981 197.598 182.954 185.777 190.753 193.32L190.481 203.679C190.481 203.679 190.117 206.83 189.574 208.503C189.418 209 189.361 209.536 189.408 210.066C189.455 210.596 189.606 211.103 189.846 211.545C189.846 211.545 190.299 214.259 189.666 214.259C189.033 214.259 187.943 218.311 187.943 218.311C187.943 218.311 186.402 222.477 187.31 224.392C188.217 226.306 190.21 232.722 190.21 232.722C190.21 232.722 187.038 230.358 186.131 226.418C186.131 226.418 178.429 218.986 172.447 223.705L173.525 200.312Z" fill="black"/>
<path opacity="0.1" d="M190.265 191.692C190.193 195.799 189.654 197.571 189.654 197.571L175.971 200.161L175.459 195.747C177.25 193.426 183.762 186.045 190.265 191.692Z" fill="black"/>
<path d="M173.525 199.709L174.981 196.995C174.981 196.995 182.954 185.174 190.753 192.717L190.481 203.076C190.481 203.076 190.117 206.227 189.574 207.9C189.418 208.397 189.361 208.933 189.408 209.463C189.455 209.993 189.606 210.5 189.846 210.942C189.846 210.942 190.299 213.656 189.666 213.656C189.033 213.656 187.943 217.708 187.943 217.708C187.943 217.708 186.402 221.874 187.31 223.789C188.217 225.703 190.21 232.119 190.21 232.119C190.21 232.119 187.038 229.755 186.131 225.815C186.131 225.815 178.429 218.383 172.447 223.102L173.525 199.709Z" fill="#DFE5EE"/>
<path opacity="0.1" d="M186.39 192.054C186.39 192.054 173.253 202.076 173.886 210.864C173.886 210.864 181.227 194.755 186.39 192.054Z" fill="black"/>
<path opacity="0.1" d="M174.995 201.575L175.058 215.299C172.574 215.438 170.232 215.037 168.381 213.038C167.092 211.645 166.342 209.721 165.954 207.641C165.665 205.965 165.559 204.248 165.639 202.537C165.637 202.52 165.637 202.503 165.639 202.486C165.791 198.696 166.493 194.906 166.124 191.14C165.755 187.375 163.918 183.401 160.919 182.608C160.327 182.449 159.662 182.391 159.24 181.852C158.774 181.249 158.796 180.311 158.847 179.476L158.934 178.068C158.956 177.706 158.966 177.347 158.966 176.989C158.964 173.788 158.068 170.687 156.43 168.216C154.793 165.744 152.516 164.056 149.988 163.439L149.89 163.418C149.046 163.207 148.168 162.999 147.323 163.241C145.717 163.702 144.678 165.637 143.198 166.557C140.359 168.318 135.625 166.391 132.652 165.785C132.458 165.746 132.274 165.701 132.097 165.649C132.029 164.92 131.996 164.186 131.997 163.452C131.998 160.468 132.551 157.526 133.612 154.85C134.674 152.174 136.216 149.837 138.119 148.019C140.023 146.201 142.237 144.951 144.591 144.364C146.945 143.778 149.376 143.871 151.697 144.637C154.017 145.403 156.165 146.821 157.975 148.781C159.784 150.742 161.207 153.192 162.134 155.944C163.06 158.696 163.466 161.676 163.319 164.654C163.171 167.631 162.476 170.527 161.285 173.117C161.332 173.232 161.382 173.346 161.436 173.455C164.734 180.239 175.308 175.948 175.308 175.948L175.944 200.155L174.995 201.575Z" fill="black"/>
<path d="M143.768 166.222C145.239 165.3 146.277 163.364 147.893 162.906C148.735 162.665 149.614 162.873 150.463 163.081L150.56 163.105C153.233 163.762 155.619 165.614 157.266 168.311C158.913 171.007 159.707 174.361 159.497 177.736L159.41 179.144C159.356 179.976 159.334 180.92 159.805 181.517C160.225 182.057 160.89 182.12 161.482 182.271C164.481 183.067 166.318 187.019 166.687 190.806C167.056 194.593 166.342 198.394 166.202 202.199C166.061 206.004 166.624 210.204 168.939 212.703C172.578 216.623 178.111 214.391 182.928 214.033C180.797 214.033 179.2 211.301 179.084 208.66C178.967 206.019 179.914 203.505 180.819 201.123C181.724 198.741 182.632 196.178 182.43 193.543C182.153 189.925 179.858 187.028 178.98 183.546C177.956 179.494 178.943 175.143 179.407 170.932C180.278 163.045 178.921 154.166 174.008 149.067C171.95 146.936 169.434 145.624 167.172 143.84C163.12 140.647 159.924 135.965 155.828 132.859C151.732 129.754 145.981 128.602 142.407 132.582C141.024 134.123 140.131 136.26 138.709 137.746C135.931 140.656 131.514 140.71 129.287 144.28C127.37 147.352 127.889 151.715 128.503 155.528C129.321 160.615 128.86 164.573 133.235 165.478C136.195 166.059 140.927 167.986 143.768 166.222Z" fill="#603556"/>
<path opacity="0.1" d="M179.817 211.603C176.31 212.136 172.836 212.411 170.283 209.661C167.968 207.162 167.398 202.965 167.546 199.157C167.694 195.349 168.402 191.544 168.031 187.761C167.66 183.977 165.825 180.025 162.826 179.229C162.234 179.072 161.572 179.015 161.15 178.475C160.681 177.872 160.701 176.931 160.754 176.099L160.841 174.691C161.051 171.316 160.257 167.963 158.61 165.267C156.963 162.571 154.577 160.719 151.905 160.063L151.807 160.039C150.958 159.831 150.08 159.623 149.238 159.864C147.631 160.325 146.593 162.276 145.113 163.18C142.271 164.944 137.542 163.017 134.565 162.411C130.197 161.522 130.653 157.557 129.833 152.462C129.374 149.616 128.969 146.463 129.59 143.767C129.474 143.921 129.362 144.069 129.255 144.253C127.338 147.325 127.858 151.687 128.472 155.501C129.289 160.587 128.828 164.546 133.203 165.45C136.178 166.053 140.91 167.983 143.751 166.219C145.222 165.297 146.26 163.361 147.876 162.903C148.718 162.662 149.597 162.87 150.446 163.078L150.543 163.102C153.216 163.759 155.602 165.611 157.249 168.308C158.896 171.004 159.69 174.358 159.48 177.733L159.393 179.141C159.339 179.973 159.318 180.917 159.788 181.514C160.208 182.054 160.873 182.117 161.465 182.268C164.464 183.064 166.301 187.016 166.67 190.803C167.039 194.59 166.328 198.391 166.185 202.196C166.041 206.001 166.607 210.201 168.922 212.7C172.561 216.62 178.094 214.388 182.911 214.03C181.603 214.039 180.503 213.008 179.817 211.603Z" fill="black"/>
<path d="M81.3389 221.66L96.2984 214.726C96.652 214.562 97.0436 214.579 97.3871 214.774C97.7306 214.968 97.9979 215.324 98.1304 215.763C98.2624 216.203 98.2486 216.689 98.0921 217.116C97.9356 217.543 97.6491 217.875 97.2957 218.04L82.3362 224.974L79.1283 224.576L81.3389 221.66Z" fill="#5C5C8E"/>
<path opacity="0.1" d="M97.6791 215.196C97.811 215.636 97.7969 216.123 97.6399 216.55C97.4829 216.977 97.1959 217.309 96.8419 217.473L81.8727 224.431L79.4656 224.13L79.1186 224.588L82.3265 224.986L97.286 218.052C97.6395 217.887 97.9259 217.555 98.0824 217.128C98.239 216.701 98.2527 216.215 98.1207 215.775C98.0105 215.409 97.8057 215.098 97.5383 214.892C97.5921 214.988 97.6392 215.09 97.6791 215.196Z" fill="white"/>
<path d="M81.3413 221.66L82.3362 224.974L79.7058 224.645L79.1307 224.573L79.9169 223.536L81.3413 221.66Z" fill="#EFC8C4"/>
<path d="M79.9145 223.527C79.9759 223.584 80.0285 223.654 80.0698 223.735C80.0944 223.783 80.1074 223.839 80.1074 223.896C80.1074 223.953 80.0944 224.009 80.0698 224.057C80.0284 224.11 79.98 224.154 79.9266 224.187C79.8665 224.237 79.8162 224.303 79.7792 224.38C79.7423 224.457 79.7197 224.544 79.7131 224.633L79.1356 224.564L79.9145 223.527Z" fill="#727A9C"/>
<path d="M128.309 242.822C128.309 242.822 141.267 239.442 163.008 243.727L154.491 235.96L138.995 232.02L128.032 235.638L128.309 242.822Z" fill="white"/>
<path opacity="0.1" d="M128.309 242.822C128.309 242.822 141.267 239.442 163.008 243.727L154.491 235.96L138.995 232.02L128.032 235.638L128.309 242.822Z" fill="black"/>
<path d="M126.79 246.476C126.79 246.476 133.315 224.546 166.828 246.546L154.799 236.928C154.799 236.928 125.984 227.036 122.655 238.435L126.79 246.476Z" fill="white"/>
<path opacity="0.1" d="M126.79 246.461C126.79 246.461 133.315 223.014 166.828 246.883L154.799 236.452C154.799 236.452 125.975 224.621 122.638 237.003L126.79 246.461Z" fill="black"/>
<path d="M126.79 246.47C126.79 246.47 133.315 222.676 166.828 246.545L154.799 236.114C154.799 236.114 125.984 224.621 122.655 237.018L126.79 246.47Z" fill="white"/>
<path opacity="0.1" d="M126.79 246.476C126.79 246.476 133.315 220.032 166.828 246.883L154.79 235.146C154.79 235.146 125.975 223.087 122.646 237.003L126.79 246.476Z" fill="black"/>
<path d="M126.79 246.461C126.79 246.461 133.315 219.695 166.828 246.545L154.79 234.808C154.79 234.808 125.975 222.749 122.646 236.666L126.79 246.461Z" fill="white"/>
<path opacity="0.1" d="M227.33 243.941C227.33 243.941 219.287 254.647 226.527 259.847C226.527 259.847 227.474 261.264 228.825 260.523C228.825 260.523 228.369 260.019 229.284 259.048C229.607 258.7 229.896 258.305 230.145 257.873C230.483 257.288 230.658 256.584 230.645 255.865C230.645 255.865 231.698 251.617 228.352 246.102C228.352 246.102 228.049 244.257 227.792 244.055L227.18 246.627C227.18 246.627 228.716 247.112 229.294 248.565C229.294 248.565 227.27 246.591 227.073 247.004C227.034 247.088 226.799 248.388 226.799 248.388C226.799 248.388 229.468 249.244 230.303 251.523C230.303 251.523 228.146 248.771 226.707 248.879L226.445 250.863C226.445 250.863 229.301 251.598 230.327 254.149C230.327 254.149 227.993 251.366 226.406 251.303L226.36 253.296C226.36 253.296 229.133 254.08 229.98 256.208C229.98 256.208 227.022 253.335 226.374 253.754C226.374 253.754 226.421 255.59 226.617 256.07C226.617 256.07 228.597 256.673 229 257.981C229 257.981 226.86 256.32 226.675 256.573C226.675 256.573 227.25 258.943 228.051 259.953C228.051 259.953 226.78 258.569 226.382 256.703C226.382 256.703 225.843 257.87 225.979 259.015C225.979 259.015 225.185 257.924 226.248 256.127C226.248 256.127 225.86 254.258 225.957 253.962C225.957 253.962 224.707 255.551 224.387 256.977C224.387 256.977 224.144 255.192 225.955 253.447V251.439C225.955 251.439 224.212 253.432 223.853 254.665C223.853 254.665 223.829 252.795 225.991 250.935L226.234 248.985C226.234 248.985 224.627 250.558 223.989 251.825C223.989 251.825 224.266 250.082 226.319 248.43L226.603 247.151C226.603 247.151 225.448 248.327 225.147 248.701C224.846 249.075 224.732 249.003 224.732 249.003C225.204 247.992 225.893 247.163 226.721 246.609C226.721 246.609 227.464 244.01 227.33 243.941Z" fill="#00B0FF"/>
<path opacity="0.1" d="M263.289 69.7391C263.289 69.7391 252.542 75.7689 257.609 84.0268C257.609 84.0268 258.043 85.7905 259.518 85.7543C259.518 85.7543 259.254 85.0699 260.399 84.6117C260.806 84.4464 261.196 84.2206 261.559 83.9393C262.052 83.562 262.432 82.9959 262.644 82.3264C262.644 82.3264 264.934 78.9135 263.558 72.2234C263.558 72.2234 263.852 70.3752 263.677 70.0647L262.314 72.145C262.314 72.145 263.58 73.3268 263.663 74.9459C263.663 74.9459 262.411 72.154 262.1 72.4435C262.037 72.5008 261.418 73.5861 261.418 73.5861C261.418 73.5861 263.602 75.6544 263.677 78.1597C263.677 78.1597 262.542 74.5841 261.178 73.9931L260.321 75.6996C260.321 75.6996 262.729 77.7467 262.889 80.5928C262.889 80.5928 261.598 76.9086 260.154 76.0885L259.492 77.8974C259.492 77.8974 261.809 79.9506 261.918 82.3203C261.918 82.3203 260.081 78.2502 259.353 78.3286C259.353 78.3286 258.827 80.041 258.868 80.5807C258.868 80.5807 260.503 82.0882 260.474 83.4871C260.474 83.4871 259.018 80.9304 258.776 81.0752C258.776 81.0752 258.569 83.5353 258.997 84.8528C258.997 84.8528 258.252 82.9655 258.465 81.0541C258.465 81.0541 257.604 81.8741 257.376 82.9957C257.376 82.9957 256.983 81.6058 258.521 80.4571C258.521 80.4571 258.742 78.5487 258.924 78.3225C258.924 78.3225 257.276 79.1878 256.543 80.3395C256.543 80.3395 256.871 78.5758 259.086 77.8341L259.717 75.989C259.717 75.989 257.492 76.99 256.776 77.9547C256.776 77.9547 257.334 76.2181 259.906 75.5428L260.734 73.8605C260.734 73.8605 258.764 74.5449 257.781 75.4041C257.781 75.4041 258.579 73.9328 260.986 73.3902L261.644 72.347C261.644 72.347 260.212 72.8776 259.812 73.0766C259.411 73.2756 259.327 73.158 259.327 73.158C260.081 72.4489 260.979 72.0147 261.921 71.9038C261.921 71.9038 263.376 69.8597 263.289 69.7391Z" fill="#00B0FF"/>
<path opacity="0.1" d="M161.285 73.4716C161.285 73.4716 145.139 79.1999 152.989 87.7261C152.989 87.7261 153.686 89.535 155.92 89.535C155.92 89.535 155.503 88.8355 157.231 88.4104C157.826 88.2618 158.409 88.0479 158.973 87.7713C159.639 87.4815 160.205 86.919 160.579 86.1764C160.579 86.1764 163.976 82.7997 161.746 75.992C161.746 75.992 162.152 74.1348 161.88 73.8153L159.861 75.8714C159.861 75.8714 161.802 77.1106 161.965 78.7477C161.965 78.7477 160.007 75.8865 159.538 76.1669C159.444 76.2242 158.529 77.2975 158.529 77.2975C158.529 77.2975 161.897 79.4622 162.05 81.9977C162.05 81.9977 160.254 78.3467 158.167 77.7045L156.906 79.3989C156.906 79.3989 160.594 81.5485 160.897 84.4308C160.897 84.4308 158.864 80.6651 156.66 79.7878L155.69 81.5967C155.69 81.5967 159.242 83.7494 159.475 86.1493C159.475 86.1493 156.605 81.9736 155.503 82.0249C155.503 82.0249 154.744 83.7434 154.811 84.2891C154.811 84.2891 157.32 85.8809 157.308 87.2798C157.308 87.2798 155.042 84.6448 154.668 84.7835C154.668 84.7835 154.411 87.2648 155.086 88.6094C155.086 88.6094 153.916 86.6769 154.198 84.7534C154.198 84.7534 152.914 85.5523 152.591 86.6769C152.591 86.6769 151.965 85.2629 154.27 84.1534C154.27 84.1534 154.564 82.2299 154.833 82.0068C154.833 82.0068 152.358 82.8268 151.274 83.9665C151.274 83.9665 151.73 82.1937 155.069 81.5184L155.986 79.6732C155.986 79.6732 152.637 80.6139 151.574 81.5636C151.574 81.5636 152.383 79.827 156.265 79.224L157.478 77.5507C157.478 77.5507 154.508 78.1748 153.038 79.013C153.038 79.013 154.215 77.5507 157.847 77.0834L158.818 76.0523C158.818 76.0523 156.66 76.5407 156.059 76.7277C155.457 76.9146 155.331 76.794 155.331 76.794C156.543 76.0645 157.866 75.6617 159.213 75.6121C159.213 75.6121 161.426 73.5982 161.285 73.4716Z" fill="#00B0FF"/>
<path opacity="0.1" d="M208.92 297.003C208.92 297.003 217.049 286.394 209.85 281.105C209.85 281.105 208.913 279.676 207.557 280.4C207.557 280.4 208.01 280.909 207.088 281.871C206.762 282.216 206.47 282.606 206.217 283.035C205.874 283.615 205.694 284.318 205.703 285.037C205.703 285.037 204.613 289.273 207.918 294.826C207.918 294.826 208.207 296.674 208.462 296.882L209.095 294.317C209.095 294.317 207.561 293.813 206.996 292.354C206.996 292.354 209.003 294.35 209.202 293.94C209.243 293.855 209.488 292.562 209.488 292.562C209.488 292.562 206.819 291.658 206.009 289.384C206.009 289.384 208.144 292.164 209.585 292.071L209.862 290.09C209.862 290.09 207.013 289.321 206.001 286.773C206.001 286.773 208.314 289.583 209.901 289.668L209.961 287.672C209.961 287.672 207.193 286.84 206.353 284.699C206.353 284.699 209.289 287.612 209.939 287.199C209.939 287.199 209.908 285.365 209.697 284.883C209.697 284.883 207.722 284.238 207.329 282.942C207.329 282.942 209.457 284.63 209.641 284.377C209.641 284.377 209.085 282.001 208.292 280.982C208.292 280.982 209.554 282.381 209.937 284.25C209.937 284.25 210.485 283.089 210.357 281.944C210.357 281.944 211.143 283.047 210.066 284.829C210.066 284.829 210.439 286.704 210.34 286.997C210.34 286.997 211.602 285.423 211.932 284.015C211.932 284.015 212.174 285.803 210.337 287.524L210.313 289.532C210.313 289.532 212.07 287.56 212.439 286.33C212.439 286.33 212.439 288.203 210.272 290.036L210.029 291.983C210.029 291.983 211.648 290.428 212.296 289.17C212.296 289.17 212.004 290.907 209.939 292.535L209.646 293.81C209.646 293.81 210.811 292.65 211.121 292.279C211.432 291.908 211.539 291.977 211.539 291.977C211.059 292.983 210.363 293.804 209.529 294.347C209.529 294.347 208.799 296.931 208.92 297.003Z" fill="#00B0FF"/>
<path opacity="0.1" d="M129.639 59.3733C129.639 59.3733 131.024 73.9172 138.896 70.4078C138.896 70.4078 140.379 70.4229 140.796 68.6622C140.796 68.6622 140.189 68.7707 140.184 67.2753C140.179 66.7434 140.123 66.2141 140.017 65.6985C139.877 65.001 139.558 64.3795 139.107 63.9288C139.107 63.9288 137.176 60.1843 131.616 59.8164C131.616 59.8164 130.287 58.912 129.995 59.0265L131.182 61.2666C131.182 61.2666 132.47 60.121 133.737 60.5129C133.737 60.5129 131.218 61.1581 131.347 61.6103C131.371 61.7038 132.017 62.762 132.017 62.762C132.017 62.762 134.286 60.7722 136.227 61.4505C136.227 61.4505 133.143 61.7158 132.279 63.154L133.315 64.6855C133.315 64.6855 135.61 62.4485 137.845 63.1148C137.845 63.1148 134.628 63.5368 133.562 64.9991L134.771 66.3317C134.771 66.3317 137.042 64.2031 138.896 64.776C138.896 64.776 135.217 65.7287 135.057 66.6121C135.057 66.6121 136.215 67.7517 136.642 67.8723C136.642 67.8723 138.301 66.392 139.355 66.8442C139.355 66.8442 136.952 67.8029 136.989 68.1406C136.989 68.1406 138.816 69.1235 139.954 69.0149C139.954 69.0149 138.282 69.3164 136.88 68.5024C136.88 68.5024 137.248 69.7657 138.042 70.3777C138.042 70.3777 136.858 70.4229 136.438 68.2672C136.438 68.2672 135.04 67.4291 134.921 67.1487C134.921 67.1487 135.091 69.3586 135.754 70.5736C135.754 70.5736 134.497 69.6692 134.594 66.808L133.38 65.5026C133.38 65.5026 133.48 68.4421 134.004 69.5817C134.004 69.5817 132.839 68.3969 133.092 65.1438L132.051 63.6574C132.051 63.6574 131.98 66.196 132.344 67.619C132.344 67.619 131.454 66.2322 131.764 63.2173L131.16 62.1229C131.16 62.1229 131.138 63.977 131.16 64.5137C131.182 65.0503 131.078 65.1016 131.078 65.1016C130.759 63.9969 130.693 62.8038 130.888 61.6555C130.888 61.6555 129.76 59.3009 129.639 59.3733Z" fill="#00B0FF"/>
<path opacity="0.1" d="M188.472 264.017C188.472 264.017 177.111 260.098 176.747 270.481C176.747 270.481 176.175 272.181 177.327 273.327C177.327 273.327 177.475 272.591 178.591 273.149C178.99 273.345 179.405 273.481 179.829 273.556C180.402 273.659 180.987 273.525 181.494 273.176C181.494 273.176 185.012 272.374 187.4 266.139C187.4 266.139 188.577 264.955 188.613 264.575L186.495 265.09C186.495 265.09 186.859 267.008 186.087 268.316C186.087 268.316 186.572 265.175 186.177 265.151C186.097 265.151 185.063 265.485 185.063 265.485C185.063 265.485 185.684 268.82 184.444 270.794C184.444 270.794 185.415 267.146 184.67 265.609L183.131 266.239C183.131 266.239 183.927 269.724 182.583 272.04C182.583 272.04 183.491 268.183 182.801 266.405L181.36 267.276C181.36 267.276 182.088 270.695 180.955 272.612C180.955 272.612 181.639 268.024 181.04 267.502C181.04 267.502 179.754 268.407 179.504 268.847C179.504 268.847 179.989 271.316 179.242 272.356C179.242 272.356 179.436 269.23 179.171 269.145C179.171 269.145 177.745 270.873 177.395 272.223C177.395 272.223 177.795 270.182 178.943 268.883C178.943 268.883 177.861 268.829 177.106 269.507C177.106 269.507 177.519 268.129 179.29 268.47C179.29 268.47 180.445 267.177 180.7 267.149C180.7 267.149 179.001 266.504 177.832 266.806C177.832 266.806 178.992 265.708 181.076 266.902L182.513 265.998C182.513 265.998 180.285 265 179.239 265.172C179.239 265.172 180.562 264.267 182.879 265.802L184.379 265.166C184.379 265.166 182.515 264.125 181.316 264.005C181.316 264.005 182.687 263.507 184.815 265.006L185.859 264.725C185.859 264.725 184.485 263.996 184.075 263.821C183.665 263.646 183.668 263.519 183.668 263.519C184.607 263.573 185.517 263.949 186.296 264.605C186.296 264.605 188.479 264.183 188.472 264.017Z" fill="#00B0FF"/>
</g>
<defs>
<linearGradient id="paint0_linear" x1="136.19" y1="239.678" x2="136.19" y2="129.027" gradientUnits="userSpaceOnUse">
<stop stop-color="#808080" stop-opacity="0.25"/>
<stop offset="0.54" stop-color="#808080" stop-opacity="0.12"/>
<stop offset="1" stop-color="#808080" stop-opacity="0.1"/>
</linearGradient>
<clipPath id="clip0">
<rect width="257" height="238" fill="white" transform="translate(7 59)"/>
</clipPath>
</defs>
</svg>
